<?xml version="1.0" encoding="UTF-8" standalone="no"?>
<svg width="45px" height="32px" viewBox="0 0 45 32" version="1.1" xmlns="http://www.w3.org/2000/svg" xmlns:xlink="http://www.w3.org/1999/xlink" xmlns:sketch="http://www.bohemiancoding.com/sketch/ns">
    <!-- Generator: Sketch 3.5.2 (25235) - http://www.bohemiancoding.com/sketch -->
    <title>bike-icon</title>
    <desc>Created with Sketch.</desc>
    <defs></defs>
    <g id="Page-1" stroke="none" stroke-width="1" fill="none" fill-rule="evenodd" sketch:type="MSPage">
        <g id="Landmarks" sketch:type="MSArtboardGroup" transform="translate(-163.000000, -578.000000)" fill="#76CE95">
            <g id="Group-3" sketch:type="MSLayerGroup" transform="translate(103.000000, 577.000000)">
                <path d="M94.4136683,12.9573978 L94.1111306,12.9573978 L92.3337213,3.04313692 C92.2202697,2.32140911 91.577377,1.78960968 90.8588498,1.78960968 L85.9047943,1.78960968 C85.0728155,1.78960968 84.3921056,2.47335181 84.3921056,3.30903663 C84.3921056,4.14472146 85.0728155,4.82846359 85.9047943,4.82846359 L89.5730644,4.82846359 L90.5563121,10.3363863 L74.3705428,10.3363863 L74.7865322,8.4750883 L77.358103,8.4750883 C78.1900818,8.4750883 78.8707917,7.79134616 78.8707917,6.95566134 C78.8707917,6.11997651 78.1900818,5.43623438 77.358103,5.43623438 L69.2652184,5.43623438 C68.4332396,5.43623438 67.7525297,6.11997651 67.7525297,6.95566134 C67.7525297,7.79134616 68.4332396,8.4750883 69.2652184,8.4750883 L71.6855203,8.4750883 L70.7022727,12.9573978 C70.3997349,12.9194122 70.1350144,12.9194122 69.8324767,12.9194122 C64.4246145,12.9194122 60,17.363736 60,22.7956874 C60,28.2276388 64.4246145,32.6719626 69.8324767,32.6719626 C75.2403388,32.6719626 79.6649533,28.2276388 79.6649533,22.7956874 C79.6649533,18.6932346 77.1690169,15.1985526 73.6520157,13.6791256 L73.7276501,13.3752402 L91.1235703,13.3752402 L91.1613876,13.4891973 C87.3418486,14.8566815 84.5811916,18.5033062 84.5811916,22.7956874 C84.5811916,28.2276388 89.0058061,32.6719626 94.4136683,32.6719626 C99.8215305,32.6719626 104.246145,28.2276388 104.246145,22.7956874 C104.246145,17.4017217 99.8215305,12.9573978 94.4136683,12.9573978 L94.4136683,12.9573978 Z M76.6773931,22.8336731 C76.6773931,26.5942548 73.6141984,29.6710944 69.8702939,29.6710944 C66.1263893,29.6710944 63.0631947,26.5942548 63.0631947,22.8336731 C63.0631947,19.0730913 66.1263893,15.9962517 69.8702939,15.9962517 L70.05938,15.9962517 L68.6601429,22.4158306 C68.4710568,23.2515155 69.0004979,24.0492146 69.7946594,24.239143 C69.9081111,24.2771287 70.0215627,24.2771287 70.1350144,24.2771287 C70.8157243,24.2771287 71.458617,23.7833149 71.6098859,23.0995728 L73.009123,16.7939509 C75.1647044,17.9335211 76.6773931,20.2126616 76.6773931,22.8336731 L76.6773931,22.8336731 Z M94.4136683,29.6710944 C90.6697637,29.6710944 87.6065691,26.5942548 87.6065691,22.8336731 C87.6065691,20.0227332 89.3083439,17.6296357 91.6908286,16.5660369 L92.8631624,23.0236014 C92.976614,23.7453292 93.6195067,24.2771287 94.3380339,24.2771287 C94.4136683,24.2771287 94.52712,24.2771287 94.6027544,24.239143 C95.4347332,24.0872003 95.9641742,23.2895011 95.8129054,22.491802 L94.6405716,16.0342374 C98.2710245,16.1861801 101.18295,19.1870484 101.18295,22.8716587 C101.220768,26.5942548 98.1575729,29.6710944 94.4136683,29.6710944 L94.4136683,29.6710944 Z" id="bike-icon" sketch:type="MSShapeGroup"></path>
            </g>
        </g>
    </g>
</svg>