<?xml version="1.0" encoding="UTF-8" standalone="no"?>
<svg width="39px" height="36px" viewBox="0 0 39 36" version="1.1" xmlns="http://www.w3.org/2000/svg" xmlns:xlink="http://www.w3.org/1999/xlink" xmlns:sketch="http://www.bohemiancoding.com/sketch/ns">
    <!-- Generator: Sketch 3.5.2 (25235) - http://www.bohemiancoding.com/sketch -->
    <title>Small-Squiggle</title>
    <desc>Created with Sketch.</desc>
    <defs></defs>
    <g id="Page-1" stroke="none" stroke-width="1" fill="none" fill-rule="evenodd" sketch:type="MSPage">
        <g id="RideHawaii" sketch:type="MSArtboardGroup" transform="translate(-57.000000, -12.000000)" fill="#7BDCA6">
            <g id="Small-Squiggle" sketch:type="MSLayerGroup" transform="translate(77.016879, 31.000000) rotate(2.000000) translate(-77.016879, -31.000000) translate(57.604081, 13.352001)">
                <g id="Layer_1" transform="translate(-0.000000, 0.000000)" sketch:type="MSShapeGroup">
                    <path d="M36.9934244,23.809609 C36.5053754,17.6337076 35.773302,8.07375053 35.66872,7.67894404 C35.3201136,6.26892088 34.6229008,4.66149448 32.1129346,4.66149448 C30.5790664,4.66149448 29.2892227,5.64851069 29.0103376,7.03033339 C28.870895,7.73534497 28.9406163,12.0218154 29.1497801,20.2281502 C29.1846408,22.3431849 29.254362,24.3454178 29.254362,24.599222 C29.2195014,25.8118419 28.8011737,25.8400423 28.6268705,25.8682428 C28.2782641,25.8964433 27.894797,25.9246437 27.6159119,24.9376275 C27.4764693,24.4300192 27.3021661,20.8767608 27.1278629,17.7465094 C26.8838384,13.1216334 26.6049533,7.87634728 26.2563469,6.01511671 C25.5591341,2.40545742 22.4913976,2.0388514 21.2015539,2.0388514 C18.9356122,2.0388514 17.3320227,3.36427317 17.1228589,5.39470652 C17.0879982,5.64851069 17.1228589,6.86113061 17.1577195,10.4989904 C17.2274408,16.0262812 17.401744,26.2912498 17.0879982,27.8140748 C16.8788344,28.9138928 16.2164822,29.3933007 15.6935726,29.3651002 C15.2055236,29.3368998 14.9963598,29.3086993 14.7174746,28.6036877 C14.4037289,27.7294734 14.2642863,26.2348488 14.0551224,23.8942104 C13.7762373,20.6511571 13.5670735,16.2236844 13.3579096,12.6422256 C13.1487458,8.52495794 13.0093032,6.15611903 12.9047213,5.5639093 C12.8698606,5.42290698 12.835,5.31010513 12.835,5.16910282 C12.4863936,3.30787224 11.858902,0.234021754 6.97841226,0.00841804872 C5.58398661,-0.0479828777 4.3987248,0.262222218 3.49234813,0.910832871 C2.23736504,1.81324769 1.6098735,3.30787224 1.50529158,5.53570884 C1.47043094,6.55092551 1.12182452,28.9138928 1.08696388,33.1439623 C0.424611697,33.3131651 0.00628400113,33.5951697 0.00628400113,33.9053748 C0.00628400113,34.4129832 1.05210324,34.8077896 2.37680761,34.8077896 C3.70151198,34.8077896 4.74733122,34.4129832 4.74733122,33.9053748 C4.74733122,33.5669693 4.25928224,33.2567642 3.52720877,33.1157619 C3.59693005,28.8292914 3.91067583,6.57912598 3.94553647,5.62031023 C4.01525775,3.98468336 4.43358544,2.8848653 5.13079827,2.3490565 C5.54912597,2.0388514 6.10689623,1.92604955 6.83896969,1.95425001 C9.55809971,2.06705186 10.0112881,3.33607271 10.3947551,5.45110745 C10.4296157,5.59210976 10.4644764,5.73311208 10.4644764,5.8741144 C10.5690583,6.35352227 10.7433615,9.42737276 10.8828041,12.6986265 C11.0571073,16.2800853 11.3011318,20.7357585 11.5800169,23.9788118 C11.963484,28.7446901 12.1726478,31.1417294 15.5192694,31.2827317 C17.1577195,31.3391327 19.0053335,30.3803169 19.4585218,28.0396785 C19.737407,26.488653 19.6676857,18.818127 19.5282431,10.414389 C19.4933825,8.0173496 19.4585218,5.76131254 19.4933825,5.50750837 C19.5631038,4.91529865 19.8768495,3.92828243 21.1666933,3.92828243 C21.7244635,3.92828243 23.3629137,3.92828243 23.7812414,6.24072042 C24.0949871,7.98914914 24.4087329,13.4036381 24.6527574,17.7465094 C24.8967819,22.1457817 25.0362244,24.6556229 25.2105277,25.2760331 C25.8380192,27.6166715 27.7553545,27.8140748 28.8360343,27.7294734 C30.0910174,27.6166715 31.590025,26.9962613 31.6597463,24.5710215 C31.6597463,24.2890169 31.6248856,22.8225928 31.5551644,20.0871479 C31.4505824,15.8852788 31.2762792,8.04555006 31.3808612,7.25593709 C31.4854431,6.83293015 31.7643282,6.52272505 32.1129346,6.52272505 C32.566123,6.52272505 32.9147294,6.52272505 33.2633358,7.93274821 C33.3679177,8.60955933 34.0651305,17.5773066 34.5531795,23.8942104 C33.9954093,24.0916136 33.6119422,24.3454178 33.6468028,24.6556229 C33.6816635,25.1632312 34.7623434,25.5298373 36.0521871,25.4734363 C37.3768915,25.4170354 38.3878501,24.9940285 38.3878501,24.4864201 C38.3878501,24.2326159 37.7952192,23.9224109 36.9934244,23.809609 L36.9934244,23.809609 Z" id="Shape"></path>
                </g>
            </g>
        </g>
    </g>
</svg>