<?xml version="1.0" encoding="UTF-8" standalone="no"?>
<svg width="25px" height="26px" viewBox="0 0 25 26" version="1.1" xmlns="http://www.w3.org/2000/svg" xmlns:xlink="http://www.w3.org/1999/xlink" xmlns:sketch="http://www.bohemiancoding.com/sketch/ns">
    <!-- Generator: Sketch 3.5.2 (25235) - http://www.bohemiancoding.com/sketch -->
    <title>gear</title>
    <desc>Created with Sketch.</desc>
    <defs></defs>
    <g id="Page-1" stroke="none" stroke-width="1" fill="none" fill-rule="evenodd" sketch:type="MSPage">
        <g id="Map-View-v1---MapMenu" sketch:type="MSArtboardGroup" transform="translate(-327.000000, -87.000000)" fill="#B7B7B7">
            <g id="Group" sketch:type="MSLayerGroup" transform="translate(315.000000, 75.000000)">
                <path d="M34.0168938,26.2404255 C34.0677831,25.8333115 34.10595,25.4198363 34.10595,25 C34.10595,24.5801637 34.0677831,24.1666885 34.0168938,23.7595745 L36.707663,21.6540317 C36.9493869,21.463197 37.0193597,21.1196946 36.8603308,20.8398037 L34.3158682,16.4315223 C34.1568393,16.1579926 33.8260591,16.0434917 33.5398071,16.1579926 L30.3719512,17.436585 C29.7167521,16.9340536 28.9979414,16.5078562 28.2218803,16.1834372 L27.7447936,12.8120243 C27.6875432,12.5130499 27.4267358,12.2776871 27.1086779,12.2776871 L22.0197528,12.2776871 C21.701695,12.2776871 21.4408876,12.5130499 21.3899983,12.8120243 L20.9129116,16.1834372 C20.1368505,16.5078562 19.4180398,16.9276925 18.7628407,17.436585 L15.5949848,16.1579926 C15.3087328,16.0498529 14.9779526,16.1579926 14.8189237,16.4315223 L12.2744612,20.8398037 C12.1154322,21.1133334 12.185405,21.4568359 12.4271289,21.6540317 L15.1115369,23.7595745 C15.0606477,24.1666885 15.0224807,24.5801637 15.0224807,25 C15.0224807,25.4198363 15.0606477,25.8333115 15.1115369,26.2404255 L12.4271289,28.3459683 C12.185405,28.536803 12.1154322,28.8803054 12.2744612,29.1601963 L14.8189237,33.5684777 C14.9779526,33.8420074 15.3087328,33.9565083 15.5949848,33.8420074 L18.7628407,32.563415 C19.4180398,33.0659464 20.1368505,33.4921438 20.9129116,33.8165628 L21.3899983,37.1879757 C21.4408876,37.4869501 21.701695,37.7223129 22.0197528,37.7223129 L27.1086779,37.7223129 C27.4267358,37.7223129 27.6875432,37.4869501 27.7384324,37.1879757 L28.2155192,33.8165628 C28.9915803,33.4921438 29.7103909,33.0723075 30.36559,32.563415 L33.5334459,33.8420074 C33.819698,33.9501471 34.1504781,33.8420074 34.309507,33.5684777 L36.8539696,29.1601963 C37.0129985,28.8866666 36.9430258,28.5431641 36.7013018,28.3459683 L34.0168938,26.2404255 L34.0168938,26.2404255 Z M24.5642154,29.4528095 C22.1024478,29.4528095 20.1114059,27.4617675 20.1114059,25 C20.1114059,22.5382325 22.1024478,20.5471905 24.5642154,20.5471905 C27.0259829,20.5471905 29.0170249,22.5382325 29.0170249,25 C29.0170249,27.4617675 27.0259829,29.4528095 24.5642154,29.4528095 L24.5642154,29.4528095 Z" id="gear" sketch:type="MSShapeGroup"></path>
            </g>
        </g>
    </g>
</svg>