<?xml version="1.0" encoding="UTF-8" standalone="no"?>
<svg width="39px" height="26px" viewBox="0 0 39 26" version="1.1" xmlns="http://www.w3.org/2000/svg" xmlns:xlink="http://www.w3.org/1999/xlink" xmlns:sketch="http://www.bohemiancoding.com/sketch/ns">
    <!-- Generator: Sketch 3.5.2 (25235) - http://www.bohemiancoding.com/sketch -->
    <title>landmark-icon</title>
    <desc>Created with Sketch.</desc>
    <defs></defs>
    <g id="Page-1" stroke="none" stroke-width="1" fill="none" fill-rule="evenodd" sketch:type="MSPage">
        <g id="Bike-Racks" sketch:type="MSArtboardGroup" transform="translate(-234.000000, -582.000000)" fill="#676767">
            <g id="Group-3" sketch:type="MSLayerGroup" transform="translate(103.000000, 577.000000)">
                <g id="landmark-icon" transform="translate(131.000000, 5.000000)" sketch:type="MSShapeGroup">
                    <path d="M38.1182138,22.7897841 C37.9979037,22.5115696 35.11046,15.9934009 32.5839467,11.6214584 C32.0626027,10.7470699 30.8996045,9.79319159 29.4558827,9.71370173 C28.6137116,9.63421187 27.0095762,9.83293652 25.5257509,11.6612034 C24.7236832,12.6945716 23.761202,14.0458992 22.9992376,15.1985022 C21.1544819,11.3432439 18.5076585,5.54048395 18.2269348,4.78533026 C17.3847637,2.59935904 15.7004216,1.20828645 13.6551489,1.04930672 C11.7702898,0.930071931 10.0057409,1.96344014 9.00315623,3.75196205 C7.07819375,7.32900586 0.982479208,22.2333551 0.741858897,22.869274 C0.541341971,23.3462131 0.621548741,23.9026422 0.902272437,24.3398364 C1.18299613,24.7770307 1.70434014,25.0552452 2.22568415,25.0552452 L36.674492,25.0552452 C37.195836,25.0552452 37.71718,24.7770307 37.9979037,24.3398364 C38.2786274,23.9026422 38.3588342,23.2667233 38.1182138,22.7897841 L38.1182138,22.7897841 Z M4.59178387,21.8359057 C5.55426511,19.5306997 7.07819375,15.7946762 8.562019,12.3766121 C9.20367316,13.4894702 10.2864646,15.317737 10.847912,15.317737 C11.6499797,15.317737 12.2916338,13.2112557 13.2942184,11.303499 C14.0962861,13.052276 15.0587674,15.4767168 16.061352,15.4767168 C16.9035231,15.4767168 17.2644536,13.7279398 17.7857976,11.5022236 C19.1092093,14.4036036 20.6331379,17.5831981 21.3951022,19.0935055 C21.6758259,19.6101896 22.1971699,19.9281491 22.7586173,19.967894 C23.3200647,20.0076389 23.8815121,19.6896795 24.2023392,19.2127403 C24.2424426,19.1729954 26.4882322,15.5164617 28.0923676,13.5292151 C28.3329879,13.2510006 28.7741251,12.7740614 29.2553657,12.7740614 C29.5761928,12.7740614 29.8168131,13.012531 29.8569165,13.0920209 C31.4209485,15.7946762 33.1453941,19.4512099 34.2281855,21.7564159 L4.59178387,21.7564159 L4.59178387,21.8359057 Z" id="Shape"></path>
                    <ellipse id="Oval-2" cx="28.4594595" cy="3.12" rx="3.16216216" ry="3.12"></ellipse>
                </g>
            </g>
        </g>
    </g>
</svg>