<?xml version="1.0" encoding="UTF-8" standalone="no"?>
<svg width="148px" height="31px" viewBox="0 0 148 31" version="1.1" xmlns="http://www.w3.org/2000/svg" xmlns:xlink="http://www.w3.org/1999/xlink" xmlns:sketch="http://www.bohemiancoding.com/sketch/ns">
    <!-- Generator: Sketch 3.5.2 (25235) - http://www.bohemiancoding.com/sketch -->
    <title>nav-logo</title>
    <desc>Created with Sketch.</desc>
    <defs></defs>
    <g id="Page-1" stroke="none" stroke-width="1" fill="none" fill-rule="evenodd" sketch:type="MSPage">
        <g id="Bike-Racks" sketch:type="MSArtboardGroup" transform="translate(-114.000000, -14.000000)">
            <g id="nav-logo" sketch:type="MSLayerGroup" transform="translate(113.000000, 14.058824)">
                <path d="M33.9705882,11.3235294 L33.6764706,11.3235294 L31.9117647,1.91176471 C31.7647059,1.17647059 31.1764706,0.735294118 30.4411765,0.735294118 L25.7352941,0.735294118 C25,0.735294118 24.2647059,1.32352941 24.2647059,2.20588235 C24.2647059,3.08823529 24.8529412,3.67647059 25.7352941,3.67647059 L29.2647059,3.67647059 L30.1470588,8.97058824 L14.7058824,8.97058824 L15.1470588,7.20588235 L17.6470588,7.20588235 C18.3823529,7.20588235 19.1176471,6.61764706 19.1176471,5.73529412 C19.1176471,4.85294118 18.5294118,4.26470588 17.6470588,4.26470588 L9.85294118,4.26470588 C9.11764706,4.26470588 8.38235294,4.85294118 8.38235294,5.73529412 C8.38235294,6.61764706 8.97058824,7.20588235 9.85294118,7.20588235 L12.2058824,7.20588235 L11.3235294,11.4705882 L10.4411765,11.4705882 C5.29411765,11.4705882 1.02941176,15.7352941 1.02941176,20.8823529 C1.02941176,26.0294118 5.29411765,30.2941176 10.4411765,30.2941176 C15.5882353,30.2941176 19.8529412,26.0294118 19.8529412,20.8823529 C19.8529412,16.9117647 17.5,13.5294118 14.1176471,12.2058824 L14.1176471,11.9117647 L30.8823529,11.9117647 L30.8823529,12.0588235 C27.2058824,13.3823529 24.5588235,16.9117647 24.5588235,21.0294118 C24.5588235,26.1764706 28.8235294,30.4411765 33.9705882,30.4411765 C39.1176471,30.4411765 43.3823529,26.1764706 43.3823529,21.0294118 C43.3823529,15.5882353 39.1176471,11.3235294 33.9705882,11.3235294 L33.9705882,11.3235294 Z M16.9117647,20.8823529 C16.9117647,24.5588235 13.9705882,27.3529412 10.4411765,27.3529412 C6.91176471,27.3529412 3.97058824,24.4117647 3.97058824,20.8823529 C3.97058824,17.2058824 6.91176471,14.4117647 10.4411765,14.4117647 L10.5882353,14.4117647 L9.26470588,20.5882353 C9.11764706,21.3235294 9.55882353,22.2058824 10.4411765,22.3529412 L10.7352941,22.3529412 C11.4705882,22.3529412 12.0588235,21.9117647 12.2058824,21.1764706 L13.5294118,15.1470588 C15.4411765,16.1764706 16.9117647,18.2352941 16.9117647,20.8823529 L16.9117647,20.8823529 Z M33.9705882,27.3529412 C30.2941176,27.3529412 27.5,24.4117647 27.5,20.8823529 C27.5,18.2352941 29.1176471,15.8823529 31.4705882,14.8529412 L32.6470588,21.0294118 C32.7941176,21.7647059 33.3823529,22.2058824 34.1176471,22.2058824 L34.4117647,22.2058824 C35.1470588,22.0588235 35.7352941,21.3235294 35.5882353,20.5882353 L34.4117647,14.4117647 C37.9411765,14.5588235 40.7352941,17.3529412 40.7352941,20.8823529 C40.4411765,24.4117647 37.5,27.3529412 33.9705882,27.3529412 L33.9705882,27.3529412 Z" id="Shape" fill="#7DE0A9" sketch:type="MSShapeGroup"></path>
                <g id="Group" transform="translate(50.000000, 8.823529)" sketch:type="MSShapeGroup">
                    <path d="M1.02941176,6.17647059 C1.02941176,5.44117647 1.47058824,5 2.20588235,5 C2.94117647,5 3.38235294,5.58823529 3.38235294,6.17647059 L3.38235294,7.20588235 C3.97058824,5.88235294 5,5 6.02941176,5 C6.76470588,5 7.20588235,5.44117647 7.20588235,6.17647059 C7.20588235,6.76470588 6.76470588,7.20588235 6.32352941,7.35294118 C4.70588235,7.64705882 3.52941176,8.97058824 3.52941176,11.3235294 L3.52941176,14.4117647 C3.52941176,15 2.94117647,15.5882353 2.35294118,15.5882353 C1.76470588,15.5882353 1.17647059,15.1470588 1.17647059,14.4117647 L1.17647059,6.17647059 L1.02941176,6.17647059 Z" id="Shape" fill="#FDCD04"></path>
                    <path d="M8.97058824,2.35294118 C8.97058824,1.61764706 9.55882353,1.17647059 10.2941176,1.17647059 C11.0294118,1.17647059 11.6176471,1.61764706 11.6176471,2.35294118 L11.6176471,2.5 C11.6176471,3.23529412 11.0294118,3.67647059 10.2941176,3.67647059 C9.55882353,3.67647059 8.97058824,3.08823529 8.97058824,2.35294118 L8.97058824,2.35294118 L8.97058824,2.35294118 Z M9.11764706,6.17647059 C9.11764706,5.44117647 9.55882353,5 10.2941176,5 C11.0294118,5 11.4705882,5.58823529 11.4705882,6.17647059 L11.4705882,14.4117647 C11.4705882,15.1470588 10.8823529,15.5882353 10.2941176,15.5882353 C9.70588235,15.5882353 9.11764706,15.1470588 9.11764706,14.4117647 L9.11764706,6.17647059 L9.11764706,6.17647059 Z" id="Shape" fill="#FDCD04"></path>
                    <path d="M24.7058824,14.4117647 C24.7058824,15.1470588 24.1176471,15.5882353 23.5294118,15.5882353 C22.7941176,15.5882353 22.3529412,15.1470588 22.3529412,14.4117647 L22.3529412,13.8235294 C21.6176471,14.8529412 20.5882353,15.7352941 18.8235294,15.7352941 C16.4705882,15.7352941 13.9705882,13.8235294 13.9705882,10.4411765 L13.9705882,10.4411765 C13.9705882,7.05882353 16.3235294,5.14705882 18.8235294,5.14705882 C20.5882353,5.14705882 21.6176471,6.02941176 22.3529412,6.91176471 L22.3529412,2.5 C22.3529412,1.76470588 22.9411765,1.32352941 23.5294118,1.32352941 C24.2647059,1.32352941 24.7058824,1.76470588 24.7058824,2.5 L24.7058824,14.4117647 L24.7058824,14.4117647 Z M16.4705882,10.2941176 L16.4705882,10.2941176 C16.4705882,12.3529412 17.7941176,13.6764706 19.4117647,13.6764706 C21.0294118,13.6764706 22.3529412,12.3529412 22.3529412,10.4411765 L22.3529412,10.4411765 C22.3529412,8.38235294 20.8823529,7.20588235 19.4117647,7.20588235 C17.7941176,6.91176471 16.4705882,8.23529412 16.4705882,10.2941176 L16.4705882,10.2941176 Z" id="Shape" fill="#FDCD04"></path>
                    <path d="M32.5,15.7352941 C29.5588235,15.7352941 27.2058824,13.5294118 27.2058824,10.4411765 L27.2058824,10.4411765 C27.2058824,7.5 29.2647059,5 32.2058824,5 C35.4411765,5 37.0588235,7.64705882 37.0588235,10.1470588 C37.0588235,10.8823529 36.6176471,11.3235294 35.8823529,11.3235294 L29.4117647,11.3235294 C29.7058824,12.9411765 30.8823529,13.9705882 32.3529412,13.9705882 C33.3823529,13.9705882 34.1176471,13.6764706 34.8529412,13.0882353 C35,12.9411765 35.1470588,12.9411765 35.4411765,12.9411765 C36.0294118,12.9411765 36.3235294,13.3823529 36.3235294,13.9705882 C36.3235294,14.2647059 36.1764706,14.5588235 36.0294118,14.7058824 C35.2941176,15.1470588 34.1176471,15.7352941 32.5,15.7352941 L32.5,15.7352941 Z M34.8529412,9.55882353 C34.7058824,8.08823529 33.8235294,6.91176471 32.2058824,6.91176471 C30.7352941,6.91176471 29.7058824,8.08823529 29.5588235,9.55882353 L34.8529412,9.55882353 L34.8529412,9.55882353 Z" id="Shape" fill="#FDCD04"></path>
                    <path d="M39.5588235,2.20588235 C39.5588235,1.61764706 40,1.02941176 40.7352941,1.02941176 C41.4705882,1.02941176 41.9117647,1.61764706 41.9117647,2.20588235 L41.9117647,6.61764706 C42.6470588,5.58823529 43.5294118,4.85294118 45.1470588,4.85294118 C47.5,4.85294118 48.8235294,6.47058824 48.8235294,8.82352941 L48.8235294,14.2647059 C48.8235294,15 48.3823529,15.4411765 47.6470588,15.4411765 C46.9117647,15.4411765 46.4705882,15 46.4705882,14.2647059 L46.4705882,9.41176471 C46.4705882,7.79411765 45.7352941,6.91176471 44.2647059,6.91176471 C42.9411765,6.91176471 41.9117647,7.94117647 41.9117647,9.41176471 L41.9117647,14.1176471 C41.9117647,14.8529412 41.3235294,15.2941176 40.7352941,15.2941176 C40.1470588,15.2941176 39.5588235,14.8529412 39.5588235,14.1176471 L39.5588235,2.20588235 L39.5588235,2.20588235 Z" id="Shape" fill="#7BDCA6"></path>
                    <path d="M51.0294118,12.5 L51.0294118,12.5 C51.0294118,10.2941176 52.7941176,9.11764706 55.2941176,9.11764706 C56.4705882,9.11764706 57.2058824,9.26470588 58.0882353,9.55882353 L58.0882353,9.26470588 C58.0882353,7.79411765 57.2058824,7.05882353 55.5882353,7.05882353 C54.7058824,7.05882353 53.9705882,7.20588235 53.2352941,7.5 L52.7941176,7.5 C52.2058824,7.5 51.7647059,7.05882353 51.7647059,6.47058824 C51.7647059,6.02941176 52.0588235,5.73529412 52.3529412,5.58823529 C53.3823529,5.14705882 54.2647059,5 55.7352941,5 C57.2058824,5 58.3823529,5.44117647 59.1176471,6.17647059 C59.8529412,6.91176471 60.2941176,7.94117647 60.2941176,9.41176471 L60.2941176,14.5588235 C60.2941176,15.1470588 59.8529412,15.7352941 59.1176471,15.7352941 C58.3823529,15.7352941 57.9411765,15.2941176 57.9411765,14.7058824 L57.9411765,14.2647059 C57.2058824,15.1470588 56.1764706,15.7352941 54.5588235,15.7352941 C52.6470588,15.5882353 51.0294118,14.5588235 51.0294118,12.5 L51.0294118,12.5 Z M58.0882353,11.7647059 L58.0882353,11.0294118 C57.5,10.7352941 56.6176471,10.5882353 55.7352941,10.5882353 C54.2647059,10.5882353 53.3823529,11.1764706 53.3823529,12.3529412 L53.3823529,12.3529412 C53.3823529,13.3823529 54.2647059,13.9705882 55.4411765,13.9705882 C56.9117647,13.9705882 58.0882353,13.0882353 58.0882353,11.7647059 L58.0882353,11.7647059 Z" id="Shape" fill="#7BDCA6"></path>
                    <path d="M65,14.5588235 L62.2058824,6.76470588 C62.2058824,6.61764706 62.0588235,6.32352941 62.0588235,6.17647059 C62.0588235,5.58823529 62.5,5.14705882 63.2352941,5.14705882 C63.8235294,5.14705882 64.2647059,5.58823529 64.4117647,6.02941176 L66.4705882,12.3529412 L68.5294118,6.02941176 C68.6764706,5.44117647 69.1176471,5.14705882 69.7058824,5.14705882 L69.8529412,5.14705882 C70.4411765,5.14705882 70.8823529,5.58823529 71.0294118,6.02941176 L73.0882353,12.3529412 L75.1470588,6.02941176 C75.2941176,5.58823529 75.7352941,5.14705882 76.3235294,5.14705882 C76.9117647,5.14705882 77.5,5.58823529 77.5,6.17647059 C77.5,6.32352941 77.5,6.61764706 77.3529412,6.76470588 L74.5588235,14.7058824 C74.2647059,15.4411765 73.8235294,15.7352941 73.2352941,15.7352941 L73.0882353,15.7352941 C72.5,15.7352941 72.0588235,15.4411765 71.7647059,14.7058824 L69.7058824,8.52941176 L67.6470588,14.7058824 C67.5,15.4411765 66.9117647,15.7352941 66.3235294,15.7352941 L66.1764706,15.7352941 C65.7352941,15.5882353 65.2941176,15.2941176 65,14.5588235 L65,14.5588235 Z" id="Shape" fill="#7BDCA6"></path>
                    <path d="M78.6764706,12.5 L78.6764706,12.5 C78.6764706,10.2941176 80.4411765,9.11764706 82.9411765,9.11764706 C84.1176471,9.11764706 84.8529412,9.26470588 85.7352941,9.55882353 L85.7352941,9.26470588 C85.7352941,7.79411765 84.8529412,7.05882353 83.2352941,7.05882353 C82.3529412,7.05882353 81.6176471,7.20588235 80.8823529,7.5 L80.4411765,7.5 C79.8529412,7.5 79.4117647,7.05882353 79.4117647,6.47058824 C79.4117647,6.02941176 79.7058824,5.73529412 80,5.58823529 C81.0294118,5.14705882 81.9117647,5 83.3823529,5 C84.8529412,5 86.0294118,5.44117647 86.7647059,6.17647059 C87.5,6.91176471 87.9411765,7.94117647 87.9411765,9.41176471 L87.9411765,14.5588235 C87.9411765,15.1470588 87.5,15.7352941 86.7647059,15.7352941 C86.0294118,15.7352941 85.5882353,15.2941176 85.5882353,14.7058824 L85.5882353,14.2647059 C84.8529412,15.1470588 83.8235294,15.7352941 82.2058824,15.7352941 C80.4411765,15.5882353 78.6764706,14.5588235 78.6764706,12.5 L78.6764706,12.5 Z M85.7352941,11.7647059 L85.7352941,11.0294118 C85.1470588,10.7352941 84.2647059,10.5882353 83.3823529,10.5882353 C81.9117647,10.5882353 81.0294118,11.1764706 81.0294118,12.3529412 L81.0294118,12.3529412 C81.0294118,13.3823529 81.9117647,13.9705882 83.0882353,13.9705882 C84.5588235,13.9705882 85.7352941,13.0882353 85.7352941,11.7647059 L85.7352941,11.7647059 Z" id="Shape" fill="#7BDCA6"></path>
                    <path d="M90.7352941,2.35294118 C90.7352941,1.61764706 91.3235294,1.17647059 92.0588235,1.17647059 C92.7941176,1.17647059 93.3823529,1.61764706 93.3823529,2.35294118 L93.3823529,2.5 C93.3823529,3.23529412 92.7941176,3.67647059 92.0588235,3.67647059 C91.3235294,3.67647059 90.7352941,3.08823529 90.7352941,2.35294118 L90.7352941,2.35294118 L90.7352941,2.35294118 Z M91.0294118,6.17647059 C91.0294118,5.44117647 91.4705882,5 92.2058824,5 C92.9411765,5 93.3823529,5.58823529 93.3823529,6.17647059 L93.3823529,14.4117647 C93.3823529,15.1470588 92.7941176,15.5882353 92.2058824,15.5882353 C91.6176471,15.5882353 91.0294118,15.1470588 91.0294118,14.4117647 L91.0294118,6.17647059 L91.0294118,6.17647059 Z" id="Shape" fill="#7BDCA6"></path>
                    <path d="M96.3235294,2.35294118 C96.3235294,1.61764706 96.9117647,1.17647059 97.6470588,1.17647059 C98.3823529,1.17647059 98.9705882,1.61764706 98.9705882,2.35294118 L98.9705882,2.5 C98.9705882,3.23529412 98.3823529,3.67647059 97.6470588,3.67647059 C96.9117647,3.67647059 96.3235294,3.08823529 96.3235294,2.35294118 L96.3235294,2.35294118 L96.3235294,2.35294118 Z M96.6176471,6.17647059 C96.6176471,5.44117647 97.0588235,5 97.7941176,5 C98.5294118,5 98.9705882,5.58823529 98.9705882,6.17647059 L98.9705882,14.4117647 C98.9705882,15.1470588 98.3823529,15.5882353 97.7941176,15.5882353 C97.2058824,15.5882353 96.6176471,15.1470588 96.6176471,14.4117647 L96.6176471,6.17647059 L96.6176471,6.17647059 Z" id="Shape" fill="#7BDCA6"></path>
                </g>
            </g>
        </g>
    </g>
</svg>