<?xml version="1.0" encoding="UTF-8" standalone="no"?>
<svg width="333px" height="314px" viewBox="0 0 333 314" version="1.1" xmlns="http://www.w3.org/2000/svg" xmlns:xlink="http://www.w3.org/1999/xlink" xmlns:sketch="http://www.bohemiancoding.com/sketch/ns">
    <!-- Generator: Sketch 3.5.2 (25235) - http://www.bohemiancoding.com/sketch -->
    <title>square-logo</title>
    <desc>Created with Sketch.</desc>
    <defs></defs>
    <g id="Page-1" stroke="none" stroke-width="1" fill="none" fill-rule="evenodd" sketch:type="MSPage">
        <g id="SquareIcon" sketch:type="MSArtboardGroup" transform="translate(-88.000000, -99.000000)">
            <g id="square-logo" sketch:type="MSLayerGroup" transform="translate(88.535211, 99.042553)">
                <path d="M258.687324,84.6964539 L256.523944,84.6964539 L243.183099,9.89361702 C242.101408,4.44680851 237.414085,0.45248227 232.005634,0.45248227 L194.867606,0.45248227 C188.738028,0.45248227 183.329577,5.53617021 183.329577,12.0723404 C183.329577,18.2453901 188.377465,23.6921986 194.867606,23.6921986 L222.630986,23.6921986 L230.202817,65.4510638 L108.332394,65.4510638 L111.577465,51.2893617 L131.047887,51.2893617 C137.177465,51.2893617 142.585915,46.2056738 142.585915,39.6695035 C142.585915,33.4964539 137.538028,28.0496454 131.047887,28.0496454 L70.1126761,28.0496454 C63.9830986,28.0496454 58.5746479,33.1333333 58.5746479,39.6695035 C58.5746479,45.8425532 63.6225352,51.2893617 70.1126761,51.2893617 L88.1408451,51.2893617 L80.5690141,85.0595745 C78.4056338,84.6964539 76.2422535,84.6964539 74.0788732,84.6964539 C33.3352113,84.6964539 0.163380282,118.103546 0.163380282,159.13617 C0.163380282,200.168794 33.3352113,233.575887 74.0788732,233.575887 C114.822535,233.575887 147.994366,200.168794 147.994366,159.13617 C147.994366,128.270922 129.24507,101.763121 102.56338,90.506383 L102.923944,87.964539 L233.808451,87.964539 L233.808451,88.6907801 C204.96338,98.858156 184.411268,126.455319 184.411268,159.13617 C184.411268,200.168794 217.583099,233.575887 258.326761,233.575887 C299.070423,233.575887 332.242254,200.168794 332.242254,159.13617 C332.602817,118.466667 299.430986,84.6964539 258.687324,84.6964539 L258.687324,84.6964539 Z M124.91831,159.499291 C124.91831,187.822695 101.842254,211.062411 73.7183099,211.062411 C45.5943662,211.062411 22.5183099,187.822695 22.5183099,159.499291 C22.5183099,131.175887 45.5943662,107.93617 73.7183099,107.93617 L75.1605634,107.93617 L64.7042254,156.231206 C63.2619718,162.404255 67.228169,168.577305 73.3577465,170.029787 C74.0788732,170.392908 75.1605634,170.392908 75.8816901,170.392908 C81.2901408,170.392908 85.9774648,166.761702 87.0591549,161.314894 L97.515493,113.746099 C113.740845,122.097872 124.91831,139.52766 124.91831,159.499291 L124.91831,159.499291 Z M258.687324,211.062411 C230.56338,211.062411 207.487324,187.822695 207.487324,159.499291 C207.487324,138.438298 220.107042,120.28227 238.135211,112.293617 L246.788732,160.951773 C247.870423,166.398582 252.557746,170.392908 257.966197,170.392908 C258.687324,170.392908 259.408451,170.392908 260.129577,170.029787 C266.259155,168.940426 270.585915,162.767376 269.504225,156.594326 L260.850704,107.57305 C288.253521,108.662411 310.247887,131.175887 310.247887,159.13617 C309.887324,187.822695 286.811268,211.062411 258.687324,211.062411 L258.687324,211.062411 Z" id="Shape" fill="#7DE0A9" sketch:type="MSShapeGroup"></path>
                <g id="Group" transform="translate(5.211268, 264.078014)" sketch:type="MSShapeGroup">
                    <path d="M0,17.7929078 C0,15.6141844 1.8028169,13.7985816 3.96619718,13.7985816 C6.12957746,13.7985816 7.93239437,15.6141844 7.93239437,17.7929078 L7.93239437,21.4241135 C9.73521127,17.0666667 12.9802817,13.7985816 16.5859155,13.7985816 C19.1098592,13.7985816 20.5521127,15.6141844 20.5521127,17.7929078 C20.5521127,19.9716312 19.1098592,21.4241135 17.3070423,21.4241135 C11.5380282,22.5134752 7.93239437,26.870922 7.93239437,34.8595745 L7.93239437,45.0269504 C7.93239437,47.2056738 6.12957746,49.0212766 3.96619718,49.0212766 C1.8028169,49.0212766 0,47.2056738 0,45.0269504 L0,17.7929078 L0,17.7929078 Z" id="Shape" fill="#FDCD04"></path>
                    <path d="M27.0422535,4.72056738 C27.0422535,2.1787234 28.8450704,0.726241135 31.3690141,0.726241135 C33.8929577,0.726241135 35.6957746,2.1787234 35.6957746,4.72056738 L35.6957746,5.08368794 C35.6957746,7.62553191 33.8929577,9.07801418 31.3690141,9.07801418 C28.8450704,9.07801418 27.0422535,7.62553191 27.0422535,5.08368794 L27.0422535,4.72056738 L27.0422535,4.72056738 Z M27.4028169,17.7929078 C27.4028169,15.6141844 29.2056338,13.7985816 31.3690141,13.7985816 C33.5323944,13.7985816 35.3352113,15.6141844 35.3352113,17.7929078 L35.3352113,45.3900709 C35.3352113,47.5687943 33.5323944,49.3843972 31.3690141,49.3843972 C29.2056338,49.3843972 27.4028169,47.5687943 27.4028169,45.3900709 L27.4028169,17.7929078 L27.4028169,17.7929078 Z" id="Shape" fill="#FDCD04"></path>
                    <path d="M79.3239437,45.3900709 C79.3239437,47.5687943 77.5211268,49.3843972 75.3577465,49.3843972 C73.1943662,49.3843972 71.3915493,47.5687943 71.3915493,45.3900709 L71.3915493,43.2113475 C68.8676056,46.8425532 65.2619718,49.7475177 59.4929577,49.7475177 C51.5605634,49.7475177 43.628169,43.2113475 43.628169,31.5914894 L43.628169,31.5914894 C43.628169,19.9716312 51.2,13.435461 59.4929577,13.435461 C65.2619718,13.435461 68.8676056,16.3404255 71.3915493,19.6085106 L71.3915493,4.72056738 C71.3915493,2.54184397 73.1943662,0.726241135 75.3577465,0.726241135 C77.5211268,0.726241135 79.3239437,2.54184397 79.3239437,4.72056738 L79.3239437,45.3900709 L79.3239437,45.3900709 Z M51.9211268,31.5914894 L51.9211268,31.5914894 C51.9211268,38.4907801 56.6084507,42.848227 61.656338,42.848227 C67.0647887,42.848227 71.7521127,38.4907801 71.7521127,31.5914894 L71.7521127,31.5914894 C71.7521127,25.0553191 67.0647887,20.3347518 61.656338,20.3347518 C56.2478873,20.3347518 51.9211268,24.6921986 51.9211268,31.5914894 L51.9211268,31.5914894 Z" id="Shape" fill="#FDCD04"></path>
                    <path d="M105.284507,49.7475177 C95.1887324,49.7475177 87.6169014,42.4851064 87.6169014,31.5914894 L87.6169014,31.5914894 C87.6169014,21.787234 94.4676056,13.435461 104.56338,13.435461 C115.380282,13.435461 120.788732,22.5134752 120.788732,30.5021277 C120.788732,32.6808511 118.985915,34.1333333 117.183099,34.1333333 L95.5492958,34.1333333 C96.2704225,39.9432624 100.23662,42.848227 105.284507,42.848227 C108.529577,42.848227 111.053521,41.7588652 113.577465,39.9432624 C114.298592,39.5801418 114.659155,39.2170213 115.740845,39.2170213 C117.543662,39.2170213 118.985915,40.6695035 118.985915,42.4851064 C118.985915,43.5744681 118.625352,44.3007092 117.904225,45.0269504 C114.298592,47.9319149 110.332394,49.7475177 105.284507,49.7475177 L105.284507,49.7475177 Z M112.856338,29.0496454 C112.495775,23.9659574 109.250704,19.9716312 104.202817,19.9716312 C99.515493,19.9716312 95.9098592,23.6028369 95.1887324,29.0496454 L112.856338,29.0496454 L112.856338,29.0496454 Z" id="Shape" fill="#FDCD04"></path>
                    <path d="M128.721127,4.72056738 C128.721127,2.54184397 130.523944,0.726241135 132.687324,0.726241135 C134.850704,0.726241135 136.653521,2.54184397 136.653521,4.72056738 L136.653521,19.6085106 C138.816901,16.3404255 142.061972,13.435461 147.470423,13.435461 C155.042254,13.435461 159.729577,18.5191489 159.729577,26.870922 L159.729577,45.3900709 C159.729577,47.5687943 157.926761,49.3843972 155.76338,49.3843972 C153.6,49.3843972 151.797183,47.5687943 151.797183,45.3900709 L151.797183,29.0496454 C151.797183,23.6028369 149.273239,20.6978723 144.585915,20.6978723 C139.898592,20.6978723 137.014085,23.9659574 137.014085,29.412766 L137.014085,45.3900709 C137.014085,47.5687943 135.211268,49.3843972 133.047887,49.3843972 C130.884507,49.3843972 129.08169,47.5687943 129.08169,45.3900709 L129.08169,4.72056738 L128.721127,4.72056738 Z" id="Shape" fill="#7BDCA6"></path>
                    <path d="M166.940845,38.8539007 L166.940845,38.8539007 C166.940845,31.2283688 172.709859,27.5971631 181.002817,27.5971631 C184.969014,27.5971631 187.492958,28.3234043 190.377465,29.0496454 L190.377465,28.3234043 C190.377465,23.2397163 187.492958,20.6978723 181.723944,20.6978723 C178.839437,20.6978723 176.315493,21.0609929 174.152113,22.1503546 C173.791549,22.1503546 173.430986,22.5134752 173.070423,22.5134752 C171.267606,22.5134752 169.825352,21.0609929 169.825352,19.2453901 C169.825352,17.7929078 170.907042,16.7035461 171.988732,15.977305 C175.233803,14.8879433 178.478873,13.7985816 183.166197,13.7985816 C188.214085,13.7985816 192.180282,15.2510638 194.704225,17.7929078 C197.228169,20.3347518 198.309859,23.9659574 198.309859,28.3234043 L198.309859,45.3900709 C198.309859,47.5687943 196.507042,49.0212766 194.343662,49.0212766 C192.180282,49.0212766 190.377465,47.5687943 190.377465,45.7531915 L190.377465,44.3007092 C187.853521,47.2056738 184.608451,49.3843972 179.2,49.3843972 C172.349296,49.3843972 166.940845,45.7531915 166.940845,38.8539007 L166.940845,38.8539007 Z M190.377465,36.3120567 L190.377465,33.7702128 C188.214085,33.0439716 185.690141,32.3177305 182.44507,32.3177305 C177.397183,32.3177305 174.512676,34.4964539 174.512676,38.1276596 L174.512676,38.1276596 C174.512676,41.3957447 177.397183,43.2113475 181.36338,43.2113475 C186.411268,43.9375887 190.377465,40.6695035 190.377465,36.3120567 L190.377465,36.3120567 Z" id="Shape" fill="#7BDCA6"></path>
                    <path d="M213.453521,45.7531915 L204.078873,19.2453901 C203.71831,18.8822695 203.71831,17.7929078 203.71831,17.0666667 C203.71831,15.2510638 205.160563,13.435461 207.684507,13.435461 C209.487324,13.435461 210.929577,14.8879433 211.650704,16.7035461 L218.140845,37.764539 L224.991549,16.7035461 C225.712676,14.8879433 227.15493,13.435461 228.957746,13.435461 L229.31831,13.435461 C231.48169,13.435461 232.923944,14.8879433 233.284507,16.7035461 L240.135211,37.764539 L246.985915,16.7035461 C247.346479,14.8879433 248.788732,13.7985816 250.952113,13.7985816 C253.115493,13.7985816 254.557746,15.6141844 254.557746,17.4297872 C254.557746,18.1560284 254.197183,18.8822695 254.197183,19.2453901 L244.822535,45.7531915 C244.101408,48.2950355 242.298592,49.3843972 240.495775,49.3843972 L240.135211,49.3843972 C238.332394,49.3843972 236.529577,48.2950355 235.808451,46.1163121 L228.957746,25.4184397 L222.107042,46.1163121 C221.385915,48.2950355 219.583099,49.3843972 217.780282,49.3843972 L217.419718,49.3843972 C215.977465,49.3843972 214.535211,48.2950355 213.453521,45.7531915 L213.453521,45.7531915 Z" id="Shape" fill="#7BDCA6"></path>
                    <path d="M259.24507,38.8539007 L259.24507,38.8539007 C259.24507,31.2283688 265.014085,27.5971631 273.307042,27.5971631 C277.273239,27.5971631 279.797183,28.3234043 282.68169,29.0496454 L282.68169,28.3234043 C282.68169,23.2397163 279.797183,20.6978723 274.028169,20.6978723 C271.143662,20.6978723 268.619718,21.0609929 266.456338,22.1503546 C266.095775,22.1503546 265.735211,22.5134752 265.374648,22.5134752 C263.571831,22.5134752 262.129577,21.0609929 262.129577,19.2453901 C262.129577,17.7929078 263.211268,16.7035461 264.292958,15.977305 C267.538028,14.8879433 270.783099,13.7985816 275.470423,13.7985816 C280.51831,13.7985816 284.484507,15.2510638 287.008451,17.7929078 C289.532394,20.3347518 290.614085,23.9659574 290.614085,28.3234043 L290.614085,45.3900709 C290.614085,47.5687943 288.811268,49.0212766 286.647887,49.0212766 C284.484507,49.0212766 282.68169,47.5687943 282.68169,45.7531915 L282.68169,44.3007092 C280.157746,47.2056738 276.912676,49.3843972 271.504225,49.3843972 C264.653521,49.3843972 259.24507,45.7531915 259.24507,38.8539007 L259.24507,38.8539007 Z M282.68169,36.3120567 L282.68169,33.7702128 C280.51831,33.0439716 277.994366,32.3177305 274.749296,32.3177305 C269.701408,32.3177305 266.816901,34.4964539 266.816901,38.1276596 L266.816901,38.1276596 C266.816901,41.3957447 269.701408,43.2113475 273.667606,43.2113475 C278.715493,43.9375887 282.68169,40.6695035 282.68169,36.3120567 L282.68169,36.3120567 Z" id="Shape" fill="#7BDCA6"></path>
                    <path d="M299.267606,4.72056738 C299.267606,2.1787234 301.070423,0.726241135 303.594366,0.726241135 C306.11831,0.726241135 307.921127,2.1787234 307.921127,4.72056738 L307.921127,5.08368794 C307.921127,7.62553191 306.11831,9.07801418 303.594366,9.07801418 C301.070423,9.07801418 299.267606,7.62553191 299.267606,5.08368794 L299.267606,4.72056738 L299.267606,4.72056738 Z M299.988732,17.7929078 C299.988732,15.6141844 301.791549,13.7985816 303.95493,13.7985816 C306.11831,13.7985816 307.921127,15.6141844 307.921127,17.7929078 L307.921127,45.3900709 C307.921127,47.5687943 306.11831,49.3843972 303.95493,49.3843972 C301.791549,49.3843972 299.988732,47.5687943 299.988732,45.3900709 L299.988732,17.7929078 L299.988732,17.7929078 Z" id="Shape" fill="#7BDCA6"></path>
                    <path d="M318.016901,4.72056738 C318.016901,2.1787234 319.819718,0.726241135 322.343662,0.726241135 C324.867606,0.726241135 326.670423,2.1787234 326.670423,4.72056738 L326.670423,5.08368794 C326.670423,7.62553191 324.867606,9.07801418 322.343662,9.07801418 C319.819718,9.07801418 318.016901,7.62553191 318.016901,5.08368794 L318.016901,4.72056738 L318.016901,4.72056738 Z M318.738028,17.7929078 C318.738028,15.6141844 320.540845,13.7985816 322.704225,13.7985816 C324.867606,13.7985816 326.670423,15.6141844 326.670423,17.7929078 L326.670423,45.3900709 C326.670423,47.5687943 324.867606,49.3843972 322.704225,49.3843972 C320.540845,49.3843972 318.738028,47.5687943 318.738028,45.3900709 L318.738028,17.7929078 L318.738028,17.7929078 Z" id="Shape" fill="#7BDCA6"></path>
                </g>
            </g>
        </g>
    </g>
</svg>